<svg width="107" height="30" viewBox="0 0 107 30" fill="none" xmlns="http://www.w3.org/2000/svg">
<path fill-rule="evenodd" clip-rule="evenodd" d="M33.8701 24.4125V6.4194H38.1314V8.9113C39.2677 6.94016 42.1437 5.95459 44.4398 5.95459C45.2346 5.95459 46.5613 6.21997 47.2432 6.46342L46.868 10.6168C43.2822 9.53673 38.3022 11.0518 38.3022 15.6567V24.4611L33.8701 24.4125Z" fill="black"/>
<path fill-rule="evenodd" clip-rule="evenodd" d="M57.3414 9.60908C56.0766 9.60908 55.0056 9.97426 54.1289 10.7051C53.2521 11.4364 52.6694 12.4333 52.3812 13.6957H62.0351C61.857 12.4333 61.3407 11.4364 60.4866 10.7051C59.6319 9.97426 58.5835 9.60908 57.3414 9.60908ZM66.2955 15.0582C66.2955 15.5456 66.2507 16.1876 66.1622 16.9847H52.3812C52.6694 18.226 53.2742 19.2277 54.1957 19.9919C55.1163 20.7562 56.3535 21.138 57.9069 21.138C60.104 21.138 62.0896 20.5186 63.8658 19.2773L65.5962 22.3675C63.3549 24.029 60.7364 24.8594 57.7407 24.8594C56.0983 24.8594 54.6393 24.5934 53.3632 24.0618C52.0867 23.5303 51.0609 22.8161 50.284 21.9189C49.507 21.0222 48.9248 20.0253 48.5368 18.9283C48.1483 17.8323 47.9541 16.6642 47.9541 15.4234C47.9541 12.6988 48.825 10.4454 50.5677 8.6618C52.3089 6.87913 54.5665 5.9873 57.3414 5.9873C59.9594 5.9873 62.1064 6.80109 63.7822 8.42964C65.458 10.0572 66.2955 12.2669 66.2955 15.0582Z" fill="black"/>
<path fill-rule="evenodd" clip-rule="evenodd" d="M73.3192 24.4282L67.1611 6.41992H71.6886L75.4828 18.6468L79.7772 6.41992H82.8063L87.2005 18.6468L90.8949 6.41992H95.4224L89.3641 24.4282H85.6023L81.308 12.6332L77.081 24.4282H73.3192Z" fill="black"/>
<path fill-rule="evenodd" clip-rule="evenodd" d="M17.6109 13.2222C17.869 12.6014 18.2433 12.0384 18.7414 11.5358C18.885 11.391 19.0354 11.2585 19.1894 11.1333H11.3545C11.0447 11.7851 10.8131 12.4806 10.6631 13.2222H17.6109Z" fill="#8891E9"/>
<path fill-rule="evenodd" clip-rule="evenodd" d="M19.1279 19.7154C18.9774 19.5898 18.8314 19.4572 18.6912 19.3115C18.2103 18.8093 17.8479 18.2469 17.5986 17.6265H10.665C10.816 18.3666 11.0481 19.0626 11.3594 19.7154H19.1279Z" fill="#8891E9"/>
<path fill-rule="evenodd" clip-rule="evenodd" d="M8.97786 14.3799C8.94787 14.7195 8.93164 15.0665 8.93164 15.4234C8.93164 15.7807 8.94836 16.1282 8.97885 16.4688H17.2778C17.2232 16.1336 17.1932 15.7861 17.1932 15.4234C17.1932 15.0611 17.2242 14.7146 17.2807 14.3799H8.97786Z" fill="#8891E9"/>
<path fill-rule="evenodd" clip-rule="evenodd" d="M22.4853 9.97573V9.98015C22.5306 9.97916 22.5738 9.97426 22.6186 9.97426C23.6178 9.97426 24.5329 10.2295 25.3654 10.7385C26.1975 11.2484 26.8805 11.9464 27.4126 12.8318L30.9408 10.9377C30.2086 9.36564 29.0879 8.14692 27.5788 7.28308C26.0696 6.41923 24.3943 5.9873 22.5527 5.9873C19.6893 5.9873 17.3594 6.86784 15.5621 8.62891C15.1338 9.04807 14.7596 9.49865 14.4336 9.97573H22.4853Z" fill="black"/>
<mask id="mask0_74_4243" style="mask-type:alpha" maskUnits="userSpaceOnUse" x="14" y="18" width="17" height="7">
<path d="M14.4414 18.0488H30.8748V24.8599H14.4414V18.0488Z" fill="black"/>
</mask>
<g mask="url(#mask0_74_4243)">
<path fill-rule="evenodd" clip-rule="evenodd" d="M25.3324 20.0921C24.4335 20.6129 23.485 20.873 22.4867 20.873H14.4414C14.762 21.3418 15.1269 21.786 15.5459 22.2017C17.3318 23.974 19.6238 24.86 22.4194 24.86C24.2614 24.86 25.9368 24.4281 27.4464 23.5637C28.9551 22.6999 30.0979 21.5489 30.8748 20.1083L27.3466 18.0488C26.9021 18.8906 26.2313 19.5714 25.3324 20.0921Z" fill="black"/>
</g>
<path fill-rule="evenodd" clip-rule="evenodd" d="M96.1253 20.1885C94.9525 20.1885 94.002 21.1353 94.002 22.3029C94.002 23.4706 94.9525 24.4174 96.1253 24.4174C97.2971 24.4174 98.2476 23.4706 98.2476 22.3029C98.2476 21.1353 97.2971 20.1885 96.1253 20.1885Z" fill="black"/>
</svg>
