<svg width="117" height="32" viewBox="0 0 117 32" fill="none" xmlns="http://www.w3.org/2000/svg">
<mask id="mask0_1_134" style="mask-type:luminance" maskUnits="userSpaceOnUse" x="23" y="4" width="72" height="24">
<path d="M94.751 4.25269H23.751V27.8586H94.751V4.25269Z" fill="white"/>
</mask>
<g mask="url(#mask0_1_134)">
<path d="M30.9843 4.25269C27.1734 4.25269 24.1879 6.51005 24.1879 9.81115C24.1879 16.9716 34.431 13.8404 34.431 17.5784C34.431 18.9134 33.0232 19.7387 31.2027 19.7387C28.7997 19.7387 27.2463 18.3551 27.2463 16.0735L23.751 17.6755C24.3578 21.1465 27.5133 22.9427 31.2027 22.9427C35.0864 22.9427 38.1932 20.9766 38.1932 17.457C38.1932 10.1752 27.9502 13.3792 27.9502 9.54415C27.9502 8.25769 29.2123 7.45669 30.9843 7.45669C33.2173 7.45669 34.6494 8.84023 34.6494 10.782L37.9749 9.3257C37.4893 6.48577 34.9407 4.25269 30.9843 4.25269Z" fill="#5A6C81"/>
<path d="M47.2718 9.47144C45.5727 9.47144 44.262 10.1025 43.3396 11.0734V9.95689H39.7715V27.7973H43.3396V18.8164L44.262 22.1661C45.0873 22.7001 46.0096 22.9428 47.2475 22.9428C50.9612 22.9428 53.6312 20.1029 53.6312 16.2678C53.6312 12.3599 50.9856 9.47144 47.2718 9.47144ZM46.5436 19.7145C44.8446 19.7145 43.2182 18.4523 43.2182 16.2678C43.2182 14.0104 44.8446 12.6997 46.5436 12.6997C48.364 12.6997 49.9176 14.059 49.9176 16.2678C49.9176 18.4038 48.364 19.7145 46.5436 19.7145Z" fill="#5A6C81"/>
<path d="M61.4253 9.47144C57.396 9.47144 54.459 12.287 54.459 16.2192C54.459 20.1271 57.396 22.9428 61.4253 22.9428C65.4545 22.9428 68.3915 20.1271 68.3915 16.2192C68.3915 12.287 65.4545 9.47144 61.4253 9.47144ZM61.4253 12.7482C63.27 12.7482 64.6778 14.059 64.6778 16.2192C64.6778 18.3552 63.27 19.666 61.4253 19.666C59.5806 19.666 58.1727 18.3552 58.1727 16.2192C58.1727 14.059 59.5806 12.7482 61.4253 12.7482Z" fill="#5A6C81"/>
<path d="M82.6569 9.95668H77.8508L74.5982 13.1607L73.5788 17.6511V4.73804H70.0107V22.5785H73.5788V18.7191L74.6226 17.724L78.2634 22.5785H82.6569L77.1469 15.2967L82.6569 9.95668Z" fill="#5A6C81"/>
<path d="M94.6823 16.0008C94.6823 12.1414 92.3035 9.47144 88.6869 9.47144C84.9003 9.47144 82.2061 12.3356 82.2061 16.3163C82.2061 20.1757 84.6818 22.9428 88.8325 22.9428C91.2355 22.9428 93.2259 22.0933 94.5124 20.3699L92.0123 18.0639C91.3812 19.4232 90.4588 20.0301 88.9539 20.0301C87.4004 20.0301 86.2839 19.3504 85.9926 17.3358H94.5851C94.6579 16.8018 94.6823 16.4377 94.6823 16.0008ZM88.5898 12.3841C90.1432 12.3841 90.92 13.4279 90.8957 14.9085H86.0169C86.3081 13.1366 87.279 12.3841 88.5898 12.3841Z" fill="#5A6C81"/>
</g>
</svg>
