<svg width="117" height="32" viewBox="0 0 117 32" fill="none" xmlns="http://www.w3.org/2000/svg">
<mask id="mask0_1_75" style="mask-type:luminance" maskUnits="userSpaceOnUse" x="12" y="2" width="93" height="28">
<path d="M104.501 2.25269H12.501V29.8527H104.501V2.25269Z" fill="white"/>
</mask>
<g mask="url(#mask0_1_75)">
<path d="M28.6642 24.2331C28.4842 24.2331 28.306 24.1977 28.1397 24.1289C27.9735 24.0601 27.8224 23.9591 27.6951 23.8319C27.5679 23.7046 27.4669 23.5535 27.3981 23.3873C27.3293 23.221 27.2939 23.0428 27.2939 22.8628V12.4949C27.2939 12.315 27.3294 12.1369 27.3983 11.9706C27.4671 11.8044 27.5681 11.6534 27.6953 11.5262C27.8226 11.399 27.9736 11.2981 28.1399 11.2293C28.3061 11.1605 28.4843 11.1251 28.6642 11.1252H30.6709C30.8508 11.1251 31.0289 11.1605 31.1951 11.2293C31.3613 11.298 31.5123 11.3989 31.6396 11.526C31.7668 11.6532 31.8678 11.8041 31.9367 11.9703C32.0056 12.1364 32.0411 12.3145 32.0411 12.4944V22.8633C32.0411 23.0432 32.0056 23.2213 31.9367 23.3875C31.8678 23.5536 31.7668 23.7046 31.6396 23.8317C31.5123 23.9589 31.3613 24.0597 31.1951 24.1285C31.0289 24.1972 30.8508 24.2326 30.6709 24.2325L28.6642 24.2331Z" fill="#5A6C81"/>
<path d="M32.4888 6.99232C32.489 7.35889 32.4169 7.7219 32.2767 8.06062C32.1366 8.39934 31.9311 8.70714 31.672 8.96644C31.4129 9.22575 31.1053 9.43148 30.7666 9.57189C30.428 9.7123 30.0651 9.78465 29.6985 9.78479C29.3319 9.78465 28.969 9.7123 28.6304 9.57189C28.2918 9.43148 27.9841 9.22575 27.725 8.96644C27.4659 8.70714 27.2604 8.39934 27.1203 8.06062C26.9801 7.7219 26.9081 7.35889 26.9082 6.99232C26.9082 6.25218 27.2021 5.54235 27.7254 5.01889C28.2487 4.49543 28.9584 4.20122 29.6985 4.20093C30.0651 4.201 30.4281 4.27329 30.7668 4.41367C31.1055 4.55405 31.4132 4.75977 31.6724 5.01908C31.9315 5.27839 32.1371 5.58622 32.2772 5.92497C32.4174 6.26373 32.4895 6.62678 32.4894 6.9934L32.4888 6.99232Z" fill="#5A6C81"/>
<path fill-rule="evenodd" clip-rule="evenodd" d="M16.0879 23.3028C16.0879 23.8169 16.5046 24.2331 17.0176 24.2331H19.6851C19.8651 24.2332 20.0433 24.1978 20.2096 24.1289C20.3758 24.0601 20.5269 23.9592 20.6542 23.8319C20.7814 23.7046 20.8824 23.5536 20.9512 23.3873C21.02 23.221 21.0554 23.0428 21.0554 22.8628V17.3818C21.8509 17.5046 22.6583 17.4521 23.4501 17.2216L24.0042 17.0603C24.2053 17.0018 24.382 16.8795 24.5077 16.712C24.6334 16.5444 24.7013 16.3406 24.7013 16.1311V12.9696C24.7013 12.8224 24.6677 12.6771 24.6031 12.5448C24.5385 12.4125 24.4446 12.2967 24.3284 12.2062C24.2123 12.1157 24.0771 12.0529 23.933 12.0226C23.789 11.9923 23.6399 11.9952 23.4971 12.0312L22.7379 12.2228C22.1805 12.3851 21.6079 12.3846 21.0548 12.2255V8.69269C21.0548 8.37772 21.0878 8.11904 21.1533 7.91502C21.2345 7.69313 21.3102 7.55784 21.4564 7.44636C21.6486 7.31809 21.8747 7.25024 22.1058 7.25153C22.4689 7.25153 22.8163 7.33433 23.0794 7.41551C23.7915 7.63631 24.5292 7.19038 24.7175 6.46899L25.3588 4.01909C25.5033 3.46546 25.2262 2.87829 24.6818 2.70295C24.0172 2.48972 23.4344 2.39339 22.7552 2.31763C22.1702 2.25269 21.6014 2.25269 20.9325 2.25269C19.8989 2.25269 19.0974 2.52111 18.363 3.05796C17.6454 3.57586 17.0826 4.27019 16.6745 5.13986C16.2838 6.00953 16.0879 6.97175 16.0879 8.02704V9.96986C15.3062 9.85829 14.5097 9.91587 13.7522 10.1387L13.198 10.3005C12.997 10.359 12.8204 10.4812 12.6947 10.6486C12.569 10.8161 12.5011 11.0198 12.501 11.2292V14.4497C12.5009 14.6031 12.5373 14.7543 12.6071 14.8909C12.677 15.0274 12.7783 15.1454 12.9027 15.2351C13.0272 15.3248 13.1712 15.3837 13.3228 15.4068C13.4744 15.4299 13.6294 15.4166 13.7749 15.3681L14.4649 15.1381C14.994 14.9822 15.5558 14.9754 16.0884 15.1186L16.0879 23.3028Z" fill="#5A6C81"/>
<path d="M41.4874 29.8525C40.3115 29.8525 39.1441 29.6891 37.9844 29.3622C37.3133 29.1707 36.7126 28.945 36.1823 28.6858C35.5729 28.3881 35.3932 27.6402 35.7006 27.0352L36.2813 25.8895C36.5898 25.2812 37.3545 25.0799 37.9844 25.3424C38.3762 25.5058 38.7843 25.6287 39.2091 25.7104C39.6501 25.7916 40.1156 25.8327 40.6053 25.8327C41.3732 25.8327 41.994 25.7266 42.4675 25.5139C42.941 25.318 43.2841 24.9993 43.4963 24.5582C43.7252 24.1166 43.8394 23.5533 43.8394 22.8665V21.4443C43.8393 21.3759 43.8535 21.3082 43.8811 21.2456C43.9086 21.183 43.9489 21.1268 43.9994 21.0807C44.0498 21.0345 44.1093 20.9993 44.1741 20.9774C44.2389 20.9555 44.3076 20.9474 44.3757 20.9534C44.6744 20.9805 44.8833 21.2679 44.7583 21.5406C44.5946 21.8916 44.366 22.2086 44.0845 22.4747C43.6435 22.8995 43.0964 23.2345 42.4432 23.4797C41.7894 23.7248 41.0956 23.8477 40.3607 23.8477C39.201 23.8477 38.1722 23.5857 37.2738 23.0629C36.3917 22.5396 35.6893 21.8128 35.1665 20.8815C34.6605 19.9333 34.4072 18.8223 34.4072 17.5478C34.4072 16.2241 34.6605 15.0638 35.1665 14.067C35.673 13.0539 36.3593 12.2616 37.2246 11.6896C38.1067 11.1176 39.1111 10.8318 40.2379 10.8318C40.7282 10.8318 41.1936 10.8805 41.6341 10.9785C42.0757 11.0764 42.4837 11.2155 42.8593 11.3952C43.2349 11.5586 43.5699 11.7632 43.8637 12.0083C44.1581 12.2535 44.3946 12.5225 44.5743 12.8169C44.6896 12.99 44.7827 13.1719 44.8525 13.3618C44.9347 13.5848 44.7816 13.8137 44.5494 13.8646C44.4819 13.8794 44.4118 13.8781 44.3448 13.8608C44.2779 13.8435 44.216 13.8106 44.1641 13.7648C44.1123 13.719 44.072 13.6617 44.0465 13.5974C44.021 13.5331 44.0111 13.4637 44.0174 13.3948L44.1235 12.2567C44.153 11.9407 44.2994 11.6471 44.5341 11.4334C44.7687 11.2197 45.0747 11.1013 45.392 11.1013H47.4674C47.8307 11.1013 48.1791 11.2456 48.436 11.5025C48.6928 11.7594 48.8372 12.1078 48.8372 12.471V22.9401C48.8372 24.0349 48.6656 25.0074 48.323 25.857C47.9962 26.7229 47.5145 27.4503 46.8776 28.0385C46.2406 28.643 45.4645 29.0927 44.55 29.3866C43.6516 29.6972 42.6309 29.8525 41.4874 29.8525ZM41.6103 20.2932C42.1163 20.2932 42.5411 20.1866 42.8837 19.9739C43.2412 19.7635 43.5239 19.4466 43.6922 19.0674C43.8719 18.6589 43.9617 18.1691 43.9617 17.5965C43.9617 17.025 43.8719 16.5347 43.6922 16.1261C43.5125 15.7176 43.243 15.4069 42.8837 15.1948C42.5411 14.9821 42.1163 14.8755 41.6097 14.8755C41.1037 14.8755 40.6789 14.9821 40.3358 15.1948C39.9932 15.4069 39.7319 15.7176 39.5522 16.1256C39.3725 16.5347 39.2827 17.025 39.2827 17.5965C39.2827 18.1685 39.3725 18.6589 39.5522 19.0674C39.7319 19.4598 39.9932 19.7618 40.3358 19.9745C40.6789 20.1866 41.1037 20.2932 41.6103 20.2932ZM55.9536 24.4841C54.9579 24.4841 54.1163 24.2801 53.4307 23.872C52.7444 23.4634 52.2217 22.8665 51.8623 22.0823C51.503 21.2814 51.3233 20.3176 51.3233 19.1897V12.4716C51.3233 12.2917 51.3588 12.1135 51.4276 11.9473C51.4965 11.7811 51.5974 11.63 51.7247 11.5029C51.8519 11.3757 52.003 11.2748 52.1692 11.206C52.3355 11.1372 52.5137 11.1018 52.6936 11.1019H54.927C55.2903 11.1019 55.6387 11.2462 55.8955 11.503C56.1524 11.7599 56.2967 12.1083 56.2967 12.4716V18.7736C56.2967 19.1335 56.3541 19.4354 56.4683 19.6806C56.5993 19.9257 56.7789 20.1135 57.0073 20.2445C57.2362 20.3755 57.5138 20.4404 57.8407 20.4404C58.0853 20.4404 58.3061 20.4079 58.502 20.343C58.7142 20.2607 58.8938 20.1465 59.041 19.9993C59.1877 19.8521 59.3024 19.6887 59.3836 19.509C59.4653 19.3131 59.5064 19.1086 59.5064 18.8964V12.471C59.5064 12.1078 59.6508 11.7594 59.9076 11.5025C60.1645 11.2456 60.5129 11.1013 60.8762 11.1013H63.1096C63.2895 11.1012 63.4677 11.1366 63.6339 11.2054C63.8002 11.2742 63.9512 11.3751 64.0785 11.5023C64.2057 11.6295 64.3067 11.7805 64.3755 11.9467C64.4444 12.113 64.4799 12.2911 64.4799 12.471V22.8454C64.4798 23.0253 64.4443 23.2034 64.3754 23.3695C64.3065 23.5357 64.2055 23.6866 64.0783 23.8138C63.9511 23.9409 63.8 24.0417 63.6338 24.1105C63.4676 24.1793 63.2895 24.2146 63.1096 24.2146H61.1489C60.4508 24.2146 59.8647 23.6896 59.7873 22.9964L59.6618 21.8642C59.6524 21.7806 59.6723 21.6964 59.7183 21.6259C59.7642 21.5554 59.8332 21.5031 59.9134 21.4778C60.1894 21.3907 60.4438 21.6451 60.3177 21.9059C60.1335 22.2847 59.893 22.6333 59.6044 22.9401C59.1633 23.4142 58.6243 23.7897 57.9874 24.0679C57.3458 24.3467 56.6531 24.4881 55.9536 24.4841ZM68.563 24.2151C68.1996 24.2151 67.8511 24.0707 67.5941 23.8138C67.3371 23.5568 67.1928 23.2083 67.1928 22.8449V12.471C67.1929 12.1077 67.3373 11.7593 67.5943 11.5025C67.8513 11.2456 68.1997 11.1013 68.563 11.1013H70.5183C70.8657 11.1012 71.2001 11.2332 71.4538 11.4704C71.7075 11.7077 71.8616 12.0325 71.8848 12.379L72.0298 14.5286C72.0358 14.6168 72.0173 14.7049 71.9764 14.7833C71.9355 14.8616 71.8738 14.9272 71.798 14.9727C71.7222 15.0182 71.6353 15.0419 71.5469 15.0412C71.4586 15.0404 71.3721 15.0153 71.2971 14.9686C71.2082 14.9151 71.1401 14.833 71.104 14.7358C71.0679 14.6385 71.0659 14.5319 71.0984 14.4333C71.3095 13.8202 71.6088 13.2644 71.9946 12.7681C72.4525 12.1637 72.9996 11.6896 73.6366 11.3465C74.2778 11.0062 74.9931 10.8295 75.719 10.8318C76.0129 10.8318 76.2905 10.8562 76.5519 10.9049C76.915 10.9503 77.138 11.3557 77.138 11.7221V14.8722C77.138 15.7652 76.0161 16.4839 75.1551 16.2485C74.7882 16.1473 74.409 16.098 74.0284 16.1018C73.7345 16.1018 73.465 16.1505 73.2199 16.2485C72.9942 16.328 72.7921 16.4629 72.6321 16.6408C72.4797 16.8305 72.3634 17.0466 72.289 17.2783C72.2073 17.5235 72.1662 17.8092 72.1662 18.1361V22.8449C72.1663 23.0248 72.1309 23.2029 72.0621 23.3692C71.9933 23.5354 71.8924 23.6865 71.7652 23.8137C71.638 23.941 71.487 24.0419 71.3208 24.1108C71.1546 24.1797 70.9764 24.2151 70.7965 24.2151H68.563ZM85.734 24.4597C84.2149 24.4597 82.908 24.1659 81.8137 23.5776C80.7195 22.9893 79.8785 22.1884 79.2902 21.1753C78.7025 20.146 78.4087 18.9695 78.4087 17.6458C78.4087 16.6652 78.5721 15.7581 78.8984 14.9253C79.2253 14.0919 79.6826 13.3721 80.2703 12.7681C80.8663 12.1529 81.584 11.6687 82.3776 11.3465C83.1943 11.0034 84.084 10.8318 85.0478 10.8318C86.0116 10.8318 86.8851 11.0034 87.6693 11.3459C88.4525 11.6611 89.1556 12.147 89.7274 12.7681C90.2988 13.3726 90.7318 14.0913 91.0256 14.9247C91.3357 15.7581 91.4748 16.6652 91.4423 17.6458C91.4356 17.921 91.3215 18.1827 91.1244 18.375C90.9274 18.5674 90.6629 18.675 90.3876 18.6751H82.0686C81.7599 18.6751 81.4638 18.5524 81.2455 18.3341C81.0272 18.1158 80.9046 17.8197 80.9046 17.511C80.9046 17.2023 81.0272 16.9062 81.2455 16.6879C81.4638 16.4696 81.7599 16.3469 82.0686 16.3469H87.1476C87.2704 16.3469 87.3337 16.4936 87.2488 16.5829C87.2295 16.6031 87.2047 16.6171 87.1774 16.6231C87.1501 16.6291 87.1217 16.6267 87.0957 16.6163C87.0698 16.606 87.0476 16.5881 87.0319 16.5649C87.0163 16.5418 87.0079 16.5145 87.0079 16.4866V16.3957C87.0079 16.085 86.9262 15.8155 86.7628 15.5866C86.6124 15.3387 86.3903 15.1422 86.1258 15.0232C85.8482 14.8923 85.5213 14.8268 85.1458 14.8268C84.6722 14.8268 84.2718 14.9247 83.9454 15.1212C83.6167 15.3194 83.3527 15.6089 83.1856 15.9546C83.0227 16.3139 82.941 16.7469 82.941 17.2534C82.941 17.8417 83.0633 18.3563 83.3085 18.7979C83.5699 19.239 83.9454 19.5826 84.4352 19.8272C84.9417 20.0724 85.5625 20.1953 86.2974 20.1953C86.7872 20.1953 87.2039 20.1379 87.547 20.0232C88.2148 19.7802 89.0071 19.8803 89.4184 20.4599L90.1966 21.5569C90.6198 22.1527 90.5067 22.9904 89.8751 23.359C89.637 23.4975 89.3994 23.6198 89.1635 23.7248C88.592 23.9862 88.0205 24.174 87.4485 24.2882C86.8843 24.4035 86.3099 24.4609 85.734 24.4597ZM98.5009 24.4597C97.0803 24.4597 95.8389 24.2476 94.7771 23.8228C94.2935 23.6221 93.8298 23.3764 93.3922 23.0889C92.752 22.6614 92.8088 21.7685 93.3933 21.2673L94.3171 20.4761C94.8344 20.0334 95.591 20.0573 96.1906 20.3793C96.4493 20.5183 96.7215 20.6369 97.0067 20.7343C97.6924 20.9464 98.2644 21.053 98.7217 21.053C98.8846 21.053 99.0237 21.0449 99.1379 21.0281C99.2688 20.9957 99.3668 20.9551 99.4323 20.9058C99.4718 20.8739 99.5053 20.8425 99.5335 20.8111C99.5881 20.7494 99.6347 20.6785 99.6585 20.6001C99.6713 20.5561 99.6775 20.5105 99.6769 20.4648C99.6769 20.2196 99.5465 20.0399 99.2851 19.9252C99.1379 19.8603 98.8933 19.7785 98.5502 19.6801C98.1202 19.5546 97.6871 19.4402 97.2513 19.3369C96.6466 19.1848 96.0565 18.9798 95.4876 18.7243C94.9649 18.4792 94.5157 18.1934 94.1401 17.8666C93.757 17.5188 93.4414 17.1032 93.2093 16.6408C92.9971 16.183 92.8905 15.6683 92.8905 15.0963C92.8905 14.4263 93.0459 13.8299 93.356 13.3072C93.6666 12.7844 94.0914 12.3433 94.6304 11.9834C95.1839 11.6005 95.7963 11.3108 96.4434 11.1257C97.1116 10.9296 97.8045 10.8305 98.5009 10.8313C99.3013 10.8313 100.044 10.913 100.731 11.0764C101.433 11.2236 102.086 11.4444 102.69 11.7383C102.844 11.8076 102.994 11.8795 103.141 11.9553C103.847 12.3206 103.93 13.2471 103.4 13.8397L102.647 14.6801C102.206 15.1726 101.454 15.2262 100.877 14.9004C100.514 14.6861 100.128 14.5135 99.7261 14.3857C99.3338 14.2385 98.9663 14.1649 98.6238 14.1649C98.4441 14.1649 98.2888 14.1812 98.1578 14.2142C98.0436 14.2304 97.9457 14.2715 97.8639 14.3365C97.7822 14.3857 97.7173 14.4512 97.668 14.5329C97.6356 14.5979 97.6193 14.6801 97.6193 14.7781C97.6193 14.9085 97.6599 15.0313 97.7416 15.1461C97.8234 15.2597 97.9538 15.3582 98.1335 15.4399C98.2807 15.5049 98.5258 15.5953 98.8684 15.7094C99.2277 15.8236 99.7505 15.9789 100.437 16.1749C101.172 16.3875 101.817 16.6327 102.372 16.9109C102.943 17.1885 103.401 17.5148 103.744 17.8904C103.973 18.1523 104.152 18.4467 104.283 18.773C104.413 19.0999 104.479 19.4517 104.479 19.8272C104.479 20.7256 104.217 21.5265 103.695 22.2295C103.189 22.9157 102.486 23.4634 101.588 23.872C100.689 24.2638 99.6607 24.4597 98.5009 24.4597Z" fill="#5A6C81"/>
</g>
</svg>
