<svg width="117" height="32" viewBox="0 0 117 32" fill="none" xmlns="http://www.w3.org/2000/svg">
<mask id="mask0_1_67" style="mask-type:luminance" maskUnits="userSpaceOnUse" x="16" y="1" width="85" height="29">
<path d="M100.251 1.91919H16.251V29.9192H100.251V1.91919Z" fill="white"/>
</mask>
<g mask="url(#mask0_1_67)">
<path fill-rule="evenodd" clip-rule="evenodd" d="M21.409 19.9926L18.3545 19.6109C16.9301 19.4328 16.0847 17.9288 16.6804 16.6181L16.6837 16.6109L16.6871 16.6037C19.206 11.1954 24.8345 5.60125 29.4123 2.37541L29.4305 2.36261L29.449 2.35029C31.1698 1.20313 33.6086 2.95936 32.6132 5.06724L32.6103 5.07325L29.4018 11.7337L32.4563 12.1155C33.8807 12.2935 34.7262 13.7976 34.1304 15.1082L34.1271 15.1155L34.1237 15.1227C31.6048 20.5309 25.9763 26.1251 21.3985 29.3509L21.3803 29.3638L21.3618 29.3761C19.6411 30.5233 17.2023 28.767 18.1976 26.6591L18.2005 26.6531L21.409 19.9926ZM30.6844 4.0336L26.4403 12.8437L31.869 13.5223C32.145 13.5568 32.3061 13.8443 32.1911 14.0973C29.8447 19.135 24.4736 24.5176 20.034 27.646C19.6545 27.8991 19.1829 27.508 19.3785 27.094L23.6225 18.2839L18.1938 17.6053C17.9178 17.5707 17.7568 17.2832 17.8718 17.0302C20.2181 11.9926 25.5892 6.60994 30.0288 3.48153C30.4083 3.2285 30.8799 3.61955 30.6844 4.0336Z" fill="#5A6C81"/>
<path d="M48.7438 22.9418C47.0875 22.9418 45.7992 22.4883 44.8791 21.5812C43.9721 20.6611 43.5186 19.4189 43.5186 17.8545C43.5186 17.2499 43.604 16.5532 43.7749 15.7645L47.5016 16.4546C47.4227 16.8884 47.3833 17.2893 47.3833 17.6574C47.3833 18.8667 47.8433 19.4714 48.7635 19.4714C49.3025 19.4714 49.6837 19.2742 49.9071 18.8799C50.1438 18.4724 50.2621 17.8611 50.2621 17.0461V8.96187H54.1268V18.0518C54.1268 19.6029 53.6535 20.8057 52.7071 21.6601C51.7737 22.5145 50.4527 22.9418 48.7438 22.9418ZM68.0961 20.9305C66.7423 22.2714 65.0268 22.9418 62.9497 22.9418C60.8729 22.9418 59.1575 22.2714 57.8035 20.9305C56.4496 19.5897 55.7726 17.8874 55.7726 15.8236C55.7726 13.7598 56.4496 12.0575 57.8035 10.7167C59.1575 9.36278 60.8729 8.68579 62.9497 8.68579C65.0268 8.68579 66.7423 9.36278 68.0961 10.7167C69.4504 12.0575 70.127 13.7598 70.127 15.8236C70.127 17.8874 69.4504 19.5897 68.0961 20.9305ZM60.6823 18.4264C61.2607 19.0573 62.0166 19.3728 62.9497 19.3728C63.883 19.3728 64.639 19.0573 65.2172 18.4264C65.7959 17.7954 66.0848 16.9278 66.0848 15.8236C66.0848 14.7194 65.7959 13.8519 65.2172 13.2209C64.639 12.5767 63.883 12.2547 62.9497 12.2547C62.0166 12.2547 61.2607 12.5767 60.6823 13.2209C60.1039 13.8519 59.8147 14.7194 59.8147 15.8236C59.8147 16.9278 60.1039 17.7954 60.6823 18.4264ZM80.7372 16.8687C81.3681 17.7625 81.8674 18.3541 82.2356 18.6433C82.6038 18.9325 83.0178 19.0771 83.4779 19.0771C83.6618 19.0771 83.8461 19.0639 84.03 19.0376V22.6066C83.7537 22.7117 83.4382 22.7643 83.0836 22.7643C81.9006 22.7643 80.8884 22.4751 80.047 21.8967C79.2056 21.3183 78.2722 20.2535 77.247 18.7024L76.5372 17.6376L75.8274 18.5841V22.6657H71.9625V8.96187H75.8274V14.68L79.7707 8.96187H84.2073L79.5341 15.1729L80.7372 16.8687ZM96.9221 20.9305C95.5678 22.2714 93.8524 22.9418 91.7757 22.9418C89.6986 22.9418 87.9831 22.2714 86.6293 20.9305C85.2755 19.5897 84.5984 17.8874 84.5984 15.8236C84.5984 13.7598 85.2755 12.0575 86.6293 10.7167C87.9831 9.36278 89.6986 8.68579 91.7757 8.68579C93.8524 8.68579 95.5678 9.36278 96.9221 10.7167C98.2759 12.0575 98.953 13.7598 98.953 15.8236C98.953 17.8874 98.2759 19.5897 96.9221 20.9305ZM89.5082 18.4264C90.0864 19.0573 90.8424 19.3728 91.7757 19.3728C92.709 19.3728 93.4646 19.0573 94.0432 18.4264C94.6214 17.7954 94.9108 16.9278 94.9108 15.8236C94.9108 14.7194 94.6214 13.8519 94.0432 13.2209C93.4646 12.5767 92.709 12.2547 91.7757 12.2547C90.8424 12.2547 90.0864 12.5767 89.5082 13.2209C88.9295 13.8519 88.6406 14.7194 88.6406 15.8236C88.6406 16.9278 88.9295 17.7954 89.5082 18.4264Z" fill="#5A6C81"/>
</g>
</svg>
