<svg width="116" height="32" viewBox="0 0 116 32" fill="none" xmlns="http://www.w3.org/2000/svg">
<mask id="mask0_1_97" style="mask-type:luminance" maskUnits="userSpaceOnUse" x="6" y="8" width="104" height="16">
<path d="M109.001 8.01685H6.00098V23.4889H109.001V8.01685Z" fill="white"/>
</mask>
<g mask="url(#mask0_1_97)">
<path d="M16.2203 20.9285C15.8107 20.9285 15.6111 20.7283 15.6105 20.3171L15.6078 15.7296C15.6078 14.5962 15.1956 13.6534 14.4178 13.0057C13.6401 12.3581 12.5049 12.0154 11.1346 12.0154H11.1292C9.22497 12.0154 7.58983 12.6516 6.26794 13.9043L6.23242 13.9378L7.87455 15.6589L7.90954 15.6238C8.78524 14.7446 9.84716 14.2794 10.9845 14.2789H10.9877C11.6185 14.2789 12.1459 14.3981 12.5141 14.6237C12.8698 14.8396 13.0582 15.1494 13.0582 15.5126C13.0582 16.217 12.1486 16.3869 10.7605 16.5667C9.72014 16.6957 8.53066 16.898 7.60167 17.4232C6.5236 18.032 6.00098 18.9446 6.00098 20.2129C6.00098 21.1774 6.35244 21.9998 7.01554 22.5914C7.67864 23.1828 8.57641 23.4872 9.63349 23.4872H9.63672C11.1916 23.4872 12.6072 22.8396 13.4485 21.757C13.661 22.8736 14.3634 23.3728 15.7058 23.3728H15.7095C16.0315 23.3786 16.3532 23.3535 16.6703 23.2978L16.7117 23.2892V20.9263L16.2203 20.9285ZM12.9877 18.998C12.9877 20.2658 11.731 21.2982 10.1841 21.2993C9.71368 21.2993 9.32293 21.1784 9.06081 20.9496C8.79869 20.7207 8.66091 20.3921 8.66091 19.9916C8.66091 18.8507 9.78796 18.651 10.9818 18.4394L11.07 18.4238C11.9651 18.2797 12.5561 18.1723 12.9888 17.9434L12.9877 18.998Z" fill="#5A6C81"/>
<path d="M29.0791 20.27L26.853 12.2263L26.8433 12.1907L24.3185 12.1928L22.0934 20.2376L19.9755 12.2317L19.9658 12.1955L17.1562 12.1971L20.475 23.2626L20.4852 23.2972L23.4847 23.2956L25.5295 15.9384L27.6921 23.2929L30.6911 23.2907L33.9501 12.2484L33.9684 12.1863L31.232 12.188L29.0791 20.27Z" fill="#5A6C81"/>
<path d="M44.1507 13.5607C43.1819 12.5385 41.8191 11.9983 40.2092 11.9983H40.2044C38.5638 11.9993 37.1645 12.5493 36.1601 13.5931C35.1558 14.6369 34.6348 16.0617 34.6348 17.7364C34.6348 19.4111 35.1396 20.8283 36.0912 21.8381C37.0988 22.9051 38.5848 23.4691 40.3884 23.4691H40.3938C42.9466 23.4691 44.4085 22.3999 45.1841 21.5046L45.2148 21.4695L43.4989 19.8245L43.4655 19.8633C42.9574 20.457 42.0123 21.1678 40.3938 21.1689H40.3906C38.7453 21.1689 37.6494 20.2438 37.3765 18.6269L45.4774 18.6215H45.5135L45.5237 18.5869C45.6089 18.3098 45.6464 18.0202 45.6346 17.7304C45.6335 16.0255 45.1206 14.584 44.1507 13.5607ZM40.2081 14.2224C41.5946 14.2224 42.557 15.081 42.8562 16.5814L37.4131 16.5852C37.7183 15.0859 38.7334 14.2224 40.206 14.2224H40.2081Z" fill="#5A6C81"/>
<path d="M55.3024 17.8679C54.6358 17.3336 53.5682 16.9002 51.9445 16.5035C50.3385 16.1198 49.8229 15.8105 49.8223 15.232C49.8218 14.6534 50.4756 14.2897 51.529 14.2886H51.5352C52.6956 14.2886 53.6845 14.6345 54.6486 15.3772L54.6884 15.408L56.1353 13.3814L56.0942 13.3533C54.7773 12.4488 53.3176 11.9905 51.7545 11.9905H51.7505C50.3964 11.9905 49.2529 12.3111 48.4434 12.9145C47.6339 13.5179 47.2054 14.3717 47.2054 15.3804C47.2054 17.129 48.4326 18.1734 51.3062 18.8734C53.3158 19.3278 53.6836 19.6581 53.684 20.1449C53.684 20.4574 53.4984 20.7035 53.1315 20.8762C52.7871 21.0381 52.2986 21.1245 51.7209 21.1245H51.7164C50.3248 21.1245 49.0979 20.6732 48.1678 19.8195L48.128 19.7828L46.6807 21.7333L46.7135 21.7629C47.9019 22.8423 49.6985 23.4597 51.6431 23.4597H51.6492C54.5664 23.4597 56.3063 22.1769 56.3046 20.0332C56.3019 19.1011 55.985 18.413 55.3024 17.8679Z" fill="#5A6C81"/>
<path d="M63.4439 11.9827H63.4386C60.0179 11.9827 57.721 14.2916 57.7236 17.7214C57.7236 19.4263 58.2652 20.8684 59.2846 21.8906C60.3039 22.9128 61.7424 23.4514 63.4408 23.4514H63.4461C65.1144 23.4514 66.5432 22.9041 67.5763 21.8711C68.6098 20.8382 69.1624 19.3961 69.1615 17.7155C69.1588 14.2317 66.915 11.9827 63.4439 11.9827ZM63.4439 21.1539C62.5607 21.1539 61.8242 20.8382 61.3145 20.2413C60.8048 19.6443 60.5298 18.7684 60.5294 17.7192C60.5289 16.67 60.7986 15.7984 61.3114 15.1966C61.8242 14.5949 62.5576 14.2792 63.4417 14.2792C64.3249 14.2792 65.0614 14.5943 65.5711 15.1913C66.0808 15.7882 66.3557 16.6646 66.3566 17.7133C66.358 18.7619 66.0879 19.6346 65.5742 20.2364C65.0605 20.8382 64.328 21.1512 63.4439 21.1539Z" fill="#5A6C81"/>
<path d="M84.555 11.9685H84.5519C82.8977 11.9685 81.4928 12.7116 80.6812 14.0075C80.0698 12.7122 78.8471 11.9733 77.3114 11.9733H77.3083C75.8292 11.9733 74.5304 12.5724 73.7241 13.6189L73.5844 12.1617H71.1504L71.1579 23.2153V23.2639H73.8889L73.8845 16.9057C73.8845 15.3578 74.9459 14.2757 76.4679 14.2746C77.7331 14.2746 78.4307 15.1954 78.4316 16.8652L78.436 23.2601H81.167L81.1626 16.9019C81.1626 16.1539 81.4199 15.4803 81.888 15.0054C82.3562 14.5305 83.0144 14.2714 83.7464 14.2708C84.3812 14.2708 84.8724 14.4959 85.2061 14.9385C85.5399 15.381 85.7096 16.0281 85.7101 16.8625L85.7145 23.2574H88.4451L88.4402 16.2413C88.4425 13.6826 86.8798 11.9685 84.555 11.9685Z" fill="#5A6C81"/>
<path d="M93.8713 8.01685H91.085V10.7763H93.8713V8.01685Z" fill="#5A6C81"/>
<path d="M93.8404 12.1458L91.1094 12.148L91.1169 23.2016V23.2502L93.8479 23.248L93.8404 12.1944V12.1458Z" fill="#5A6C81"/>
<path d="M103.12 20.9688C102.852 21.0716 102.572 21.1361 102.286 21.1604H102.28C102.242 21.1637 102.203 21.1669 102.164 21.169C102.087 21.1744 102.009 21.1777 101.93 21.1777C100.014 21.1777 98.5134 19.6201 98.5134 17.6982C98.5134 15.7764 100.014 14.2182 101.93 14.2182C102.383 14.2177 102.831 14.3063 103.25 14.4789L103.968 12.3007C103.296 12.0679 102.591 11.952 101.881 11.958H101.869C100.326 11.958 98.9059 12.5327 97.8693 13.5695C96.8137 14.6257 96.2337 16.0964 96.2363 17.7106C96.239 19.3249 96.8243 20.7999 97.8848 21.8572C98.9263 22.8956 100.351 23.4671 101.899 23.4671H101.909C102.612 23.4737 103.312 23.3596 103.977 23.1298L103.248 20.917C103.205 20.9359 103.163 20.9526 103.12 20.9688Z" fill="#5A6C81"/>
<path d="M108.991 14.8018C108.989 14.7869 108.982 14.7731 108.971 14.7632C108.959 14.7532 108.945 14.7477 108.93 14.7479H107.825L108.607 13.9636C108.617 13.953 108.624 13.9388 108.624 13.9237C108.625 13.9087 108.62 13.8939 108.611 13.8822C108.571 13.832 108.528 13.784 108.483 13.7386C108.437 13.6933 108.39 13.6504 108.34 13.6101C108.328 13.6007 108.313 13.596 108.298 13.5969C108.283 13.5978 108.269 13.6042 108.258 13.615L107.477 14.3986V13.2901C107.477 13.275 107.472 13.2604 107.462 13.2491C107.452 13.2377 107.438 13.2304 107.423 13.2286C107.296 13.2151 107.167 13.2151 107.041 13.2286C107.025 13.2304 107.012 13.2377 107.002 13.2491C106.992 13.2604 106.987 13.275 106.987 13.2901V14.3981L106.205 13.6145C106.194 13.6037 106.18 13.5972 106.165 13.5963C106.15 13.5955 106.135 13.6002 106.123 13.6096C106.073 13.6499 106.026 13.6928 105.98 13.7381C105.935 13.7835 105.892 13.8314 105.852 13.8816C105.843 13.8933 105.838 13.9082 105.839 13.9232C105.84 13.9382 105.846 13.9525 105.857 13.9631L106.638 14.7473H105.533C105.519 14.7472 105.504 14.7526 105.492 14.7626C105.481 14.7726 105.474 14.7863 105.473 14.8013C105.458 14.929 105.458 15.0578 105.473 15.1855C105.474 15.2005 105.481 15.2142 105.492 15.2242C105.504 15.2342 105.519 15.2396 105.533 15.2395H106.638L105.857 16.0232C105.846 16.0339 105.84 16.0483 105.839 16.0633C105.839 16.0785 105.843 16.0934 105.852 16.1052C105.892 16.1554 105.935 16.2033 105.98 16.2487C106.026 16.2941 106.074 16.337 106.124 16.3772C106.136 16.3866 106.15 16.3913 106.165 16.3904C106.18 16.3895 106.194 16.3831 106.205 16.3723L106.987 15.5887V16.6967C106.987 16.7117 106.992 16.7262 107.002 16.7374C107.012 16.7486 107.025 16.7558 107.041 16.7577C107.104 16.7646 107.167 16.768 107.231 16.7679C107.296 16.768 107.36 16.7646 107.423 16.7577C107.438 16.7558 107.452 16.7486 107.462 16.7374C107.472 16.7262 107.477 16.7117 107.477 16.6967V15.5898L108.259 16.3734C108.269 16.3842 108.284 16.3906 108.299 16.3915C108.314 16.3923 108.329 16.3874 108.341 16.3777C108.44 16.298 108.53 16.2075 108.61 16.1079C108.619 16.0961 108.624 16.0812 108.623 16.066C108.622 16.051 108.616 16.0366 108.605 16.0259L107.824 15.2422H108.929C108.944 15.2423 108.959 15.2369 108.97 15.2269C108.981 15.2169 108.988 15.2032 108.99 15.1882C109.004 15.0598 109.005 14.9303 108.991 14.8018Z" fill="#5A6C81"/>
<path d="M107.284 22.135C108.208 22.135 108.957 21.3837 108.957 20.4571C108.957 19.5304 108.208 18.7791 107.284 18.7791C106.36 18.7791 105.61 19.5304 105.61 20.4571C105.61 21.3837 106.36 22.135 107.284 22.135Z" fill="#5A6C81"/>
</g>
</svg>
