<svg width="117" height="32" viewBox="0 0 117 32" fill="none" xmlns="http://www.w3.org/2000/svg">
<mask id="mask0_1_114" style="mask-type:luminance" maskUnits="userSpaceOnUse" x="20" y="2" width="77" height="27">
<path d="M96.251 2.70581H20.251V28.7991H96.251V2.70581Z" fill="white"/>
</mask>
<g mask="url(#mask0_1_114)">
<path d="M70.6607 10.0037H66.8559C66.4734 10.0037 66.1641 10.3128 66.1641 10.6954V27.9896C66.1641 28.3722 66.4734 28.6813 66.8559 28.6813H70.6607C71.0433 28.6813 71.3523 28.3722 71.3523 27.9896V10.6954C71.3523 10.3128 71.0433 10.0037 70.6607 10.0037Z" fill="#5A6C81"/>
<path d="M80.6914 14.4582V27.9896C80.6914 28.3722 81.0007 28.6813 81.3833 28.6813H85.1878C85.5704 28.6813 85.8797 28.3722 85.8797 27.9896V16.371C85.8797 15.7186 86.4064 15.1919 87.0589 15.1919H89.8836C90.5359 15.1919 91.0626 15.7186 91.0626 16.371V27.9896C91.0626 28.3722 91.3719 28.6813 91.7545 28.6813H95.559C95.9418 28.6813 96.2509 28.3722 96.2509 27.9896V14.4582C96.2509 11.9977 94.2569 10.0037 91.7963 10.0037H85.146C82.6854 10.0037 80.6914 11.9977 80.6914 14.4582Z" fill="#5A6C81"/>
<path d="M68.7588 2.70581C67.1838 2.70581 65.9053 3.98453 65.9053 5.55936C65.9053 7.13415 67.1838 8.41288 68.7588 8.41288C70.3335 8.41288 71.6124 7.13415 71.6124 5.55936C71.6124 3.98453 70.3363 2.70581 68.7588 2.70581Z" fill="#5A6C81"/>
<path d="M77.9241 3.77759H74.1193C73.7368 3.77759 73.4277 4.08679 73.4277 4.46936V27.9894C73.4277 28.3719 73.7368 28.6812 74.1193 28.6812H77.9241C78.3067 28.6812 78.616 28.3719 78.616 27.9894V4.46936C78.616 4.08679 78.3067 3.77759 77.9241 3.77759Z" fill="#5A6C81"/>
<path d="M65.0111 27.6041L59.7468 19.709C59.5973 19.4863 59.5923 19.1955 59.7311 18.9649L64.5604 11.0541C64.8434 10.5929 64.5105 10.0008 63.9709 10.0008H59.8803C59.6394 10.0008 59.4167 10.1265 59.2908 10.3309L56.1543 15.4667C56.0208 15.6842 55.7849 15.8362 55.5098 15.8362C55.0905 15.8362 54.7498 15.4956 54.7498 15.0763V5.25012C54.7498 4.86755 54.4407 4.55835 54.0579 4.55835H50.2534C49.8708 4.55835 49.5615 4.86755 49.5615 5.25012V27.9893C49.5615 28.3717 49.8708 28.6811 50.2534 28.6811H54.0579C54.4407 28.6811 54.7498 28.3717 54.7498 27.9893V23.291C54.7498 22.8718 55.0905 22.5312 55.5098 22.5312C55.7717 22.5312 55.9997 22.6621 56.1386 22.8639L59.8124 28.3745C59.9406 28.5658 60.1557 28.6836 60.3887 28.6836H64.4373C64.99 28.6836 65.3201 28.068 65.0136 27.6093" fill="#5A6C81"/>
<path d="M31.7676 11.2952C31.9065 11.1537 32.0978 11.0672 32.31 11.0672C32.5223 11.0672 32.7109 11.1511 32.8472 11.2899L36.2169 14.6597C36.4895 14.9322 36.9323 14.9322 37.2048 14.6597L39.8854 11.9791C40.1579 11.7066 40.1579 11.2637 39.8854 10.9912L34.27 5.36803C33.1904 4.28846 31.4375 4.28846 30.3579 5.36803L24.7347 10.9912C24.4621 11.2637 24.4621 11.7066 24.7347 11.9791L27.4153 14.6597C27.6878 14.9322 28.1306 14.9322 28.4031 14.6597L31.7676 11.2952Z" fill="#5A6C81"/>
<path d="M43.5614 14.6624L42.343 13.444C42.0704 13.1714 41.6276 13.1714 41.3551 13.444L32.8469 21.9522C32.7106 22.0884 32.5194 22.1749 32.3097 22.1749C32.1001 22.1749 31.9114 22.091 31.7726 21.9548L23.267 13.444C22.9944 13.1714 22.5516 13.1714 22.2791 13.444L21.0607 14.6624C19.9811 15.742 19.9811 17.495 21.0607 18.5746L30.3549 27.8689C31.4345 28.9485 33.1875 28.9485 34.2671 27.8689L43.5614 18.5746C44.641 17.495 44.641 15.742 43.5614 14.6624Z" fill="#5A6C81"/>
</g>
</svg>
